# xmcd
#
# Track frame offsets:
#	150
#	12134
#	26498
#	41682
#	56202
#	72236
#	88954
#	107026
#	121994
#	137819
#	154175
#	165425
#	178773
#	197301
#
# Disc length: 2827 seconds
# Revision: 0
# Processed by: cddbd v1.5.2PL0 Copyright (c) Steve Scherf et al.
# Submitted via: dBpowerAMP V12.0
#
DISCID=ba0b090e
DTITLE=Rômulo Gomes - A Magia da Música Popular Brasileira Disco 1 O Canto do nosso povo
DYEAR=2008
DGENRE=MPB
TTITLE0=Pense em mim
TTITLE1=Entre tapas e beijos
TTITLE2=Não aprendi a dizer adeus
TTITLE3=Festa de rodeio
TTITLE4=Faz mais uma vez comigo
TTITLE5=Dormi na praça
TTITLE6=Coração de papel
TTITLE7=Coração vagabundo
TTITLE8=Estou apaixonado
TTITLE9=Desculpe, mas eu vou chorar
TTITLE10=Estrada da vida
TTITLE11=Marcas do que se foi
TTITLE12=Nuvem de lágrimas
TTITLE13=A vida do viajante
EXTD=
EXTT0=
EXTT1=
EXTT2=
EXTT3=
EXTT4=
EXTT5=
EXTT6=
EXTT7=
EXTT8=
EXTT9=
EXTT10=
EXTT11=
EXTT12=
EXTT13=
PLAYORDER=
